<!-- Generated by IcoMoon.io -->
<svg version="1.1" xmlns="http://www.w3.org/2000/svg" width="32" height="32" viewBox="0 0 32 32">
<title>ad_coin</title>
<path fill="none" stroke="#5c5c5c" stroke-linejoin="miter" stroke-linecap="butt" stroke-miterlimit="4" stroke-width="1.1852" d="M29.037 15.407c0 7.527-6.102 13.63-13.63 13.63s-13.63-6.102-13.63-13.63c0-7.527 6.102-13.63 13.63-13.63s13.63 6.102 13.63 13.63z"></path>
<path fill="#5c5c5c" d="M15.538 17.541c0.079 0.063 0.119 0.146 0.119 0.249s-0.036 0.19-0.107 0.261h-1.683l0.676 2.252c0.016 0.055 0.024 0.126 0.024 0.213s-0.055 0.194-0.166 0.32c-0.111 0.126-0.225 0.19-0.344 0.19-0.221 0-0.395-0.055-0.521-0.166l-0.841-2.809h-3.022l-0.593 1.612c-0.205 0.545-0.502 1.015-0.889 1.41s-0.889 0.593-1.505 0.593c-0.466 0-0.83-0.122-1.090-0.367-0.269-0.245-0.403-0.601-0.403-1.067s0.115-0.885 0.344-1.256c0.221-0.379 0.518-0.676 0.889-0.889 0.743-0.427 1.572-0.64 2.489-0.64l1.73-4.883c0.079-0.229 0.162-0.399 0.249-0.51-0.245-0.822-0.367-1.272-0.367-1.351 0-0.087 0.055-0.182 0.166-0.284 0.119-0.111 0.237-0.166 0.356-0.166 0.229 0 0.407 0.055 0.533 0.166l2.098 7.028 1.553-0.012c0.134 0 0.237 0.036 0.308 0.107zM6.684 21.167c0.593 0 1.106-0.596 1.541-1.79l0.462-1.316c-0.869 0-1.561 0.205-2.074 0.616-0.506 0.411-0.759 0.952-0.759 1.624 0 0.276 0.075 0.49 0.225 0.64 0.158 0.15 0.359 0.225 0.604 0.225zM11.342 12.966l-1.446 4.48h2.607l-1.161-4.48zM15.8 18.335c0-0.111 0.036-0.201 0.107-0.273 0.063-0.071 0.142-0.107 0.237-0.107 0.087 0 0.154 0.024 0.201 0.071 0 0.435 0.138 0.81 0.415 1.126 0.284 0.316 0.66 0.553 1.126 0.711v-7.633c-0.774 0.198-1.161 0.521-1.161 0.972 0 0.15 0.024 0.296 0.071 0.439-0.047 0.095-0.154 0.142-0.32 0.142s-0.308-0.059-0.427-0.178c-0.119-0.119-0.178-0.277-0.178-0.474 0-0.356 0.178-0.668 0.533-0.936 0.363-0.269 0.857-0.466 1.481-0.593v-0.545c0-0.237 0.059-0.415 0.178-0.533 0.119-0.126 0.265-0.19 0.439-0.19s0.324 0.055 0.45 0.166v0.984c0.079-0.008 0.197-0.012 0.356-0.012 1.312 0 2.382 0.371 3.212 1.114 0.411 0.379 0.731 0.885 0.96 1.517 0.237 0.624 0.356 1.351 0.356 2.181 0 1.438-0.427 2.528-1.28 3.271-0.846 0.735-1.971 1.102-3.378 1.102-1.067 0-1.896-0.233-2.489-0.699s-0.889-1.007-0.889-1.624zM19.367 12.053l-0.367 0.012v8h0.178c1.082 0 1.948-0.3 2.596-0.901s0.972-1.568 0.972-2.904c0-1.343-0.304-2.378-0.913-3.105-0.608-0.735-1.43-1.102-2.465-1.102z"></path>
</svg>
